<?xml version="1.0" encoding="utf-8"?>
<!-- Generator: Adobe Illustrator 19.0.0, SVG Export Plug-In . SVG Version: 6.00 Build 0)  -->
<svg version="1.1" id="Layer_1" xmlns="http://www.w3.org/2000/svg" xmlns:xlink="http://www.w3.org/1999/xlink" x="0px" y="0px"
	 viewBox="0 0 36.4 25.5" style="enable-background:new 0 0 36.4 25.5;" xml:space="preserve">
<style type="text/css">
	.st0{fill:#FFFFFF;}
</style>
<g>
	<g>
		<g id="XMLID_2_">
			<g>
				<path class="st0" d="M10.9,10.9L9.1,9.1l7.3-7.3L18.2,0l9.1,9.1l-1.8,1.8v0l-5.5,5.5l7.3,7.3l-1.8,1.8l-7.3-7.3L11,25.5
					l-1.8-1.8l7.3-7.3L10.9,10.9z M18.2,14.6l5.5-5.5l-5.5-5.5l-5.5,5.5L18.2,14.6z"/>
			</g>
		</g>
	</g>
	<g>
		<g>
			<g>
				<path class="st0" d="M16.4,11L16.4,11l1.8-1.8L9.1,0L7.3,1.8l0,0L0,9.2L1.8,11l0,0l5.5,5.5L0,23.7l1.8,1.8l7.3-7.3l7.3,7.3
					l1.8-1.8l-7.3-7.3L16.4,11z M3.6,9.2l5.5-5.5l5.5,5.5l-5.5,5.5L3.6,9.2z"/>
			</g>
		</g>
	</g>
	<g>
		<g>
			<g>
				<path class="st0" d="M34.6,11L34.6,11l1.8-1.8L27.3,0l-1.8,1.8l0,0l-7.3,7.3L20,11l0,0l5.5,5.5l-7.3,7.3l1.8,1.8l7.3-7.3
					l7.3,7.3l1.8-1.8l-7.3-7.3L34.6,11z M21.8,9.2l5.5-5.5l5.5,5.5l-5.5,5.5L21.8,9.2z"/>
			</g>
		</g>
	</g>
</g>
</svg>
