<?xml version="1.0" encoding="utf-8"?>
<!-- Generator: Adobe Illustrator 19.0.0, SVG Export Plug-In . SVG Version: 6.00 Build 0)  -->
<svg version="1.1" id="Layer_1" xmlns="http://www.w3.org/2000/svg" xmlns:xlink="http://www.w3.org/1999/xlink" x="0px" y="0px"
	 viewBox="0 0 166.8 121.2" style="enable-background:new 0 0 166.8 121.2;" xml:space="preserve">
<style type="text/css">
	.st0{fill:#FFFFFF;}
</style>
<path class="st0" d="M4.7,117.4v3.5h-3v-12.2H7c3,0,5,1.6,5,4.3c0,1.7-0.9,3-2.3,3.8l3.1,4.1H9.2l-2.6-3.5H4.7z M6.9,114.7
	c1.2,0,2.1-0.6,2.1-1.6c0-1-0.9-1.6-2.1-1.6H4.7v3.3H6.9z"/>
<polygon class="st0" points="28.9,120.9 25.8,120.9 25.8,114.8 23.1,119 23.1,119 21.5,119 21.5,119 18.7,114.8 18.8,120.9 
	15.7,120.9 15.7,108.8 18,108.8 22.3,115.3 26.6,108.8 28.9,108.8 "/>
<path class="st0" d="M43.7,116.7H45c-0.6,2.7-2.8,4.5-5.8,4.5c-3.5,0-6.3-2.8-6.3-6.3s2.8-6.3,6.3-6.3c3,0,5.2,1.8,5.8,4.5h-1.3
	c-0.5-2-2.2-3.3-4.5-3.3c-2.8,0-5,2.2-5,5.1s2.2,5.1,5,5.1C41.5,120,43.2,118.7,43.7,116.7"/>
<path class="st0" d="M61.8,114.9c0,3.5-2.8,6.3-6.3,6.3c-3.5,0-6.3-2.8-6.3-6.3c0-3.5,2.8-6.3,6.3-6.3
	C59,108.5,61.8,111.4,61.8,114.9 M60.5,114.9c0-2.8-2.2-5.1-5.1-5.1c-2.8,0-5,2.3-5,5.1c0,2.8,2.2,5.1,5,5.1
	C58.3,120,60.5,117.7,60.5,114.9"/>
<polygon class="st0" points="76.7,120.9 75.6,120.9 67.7,111.1 67.7,120.9 66.4,120.9 66.4,108.8 67.5,108.8 75.5,118.8 75.5,108.8 
	76.7,108.8 "/>
<path class="st0" d="M90.9,112.1h-1.2c-0.3-1.5-1.4-2.4-3.4-2.4c-1.8,0-3.1,0.9-3.1,2.3c0,1.1,0.9,1.8,2.5,2.1l1.8,0.4
	c2.2,0.4,3.4,1.4,3.4,3.2c0,2.2-1.8,3.7-4.5,3.7c-2.9,0-4.8-1.5-5.1-4.1h1.3c0.3,1.9,1.6,3,3.9,3c1.9,0,3.2-0.9,3.2-2.4
	c0-1-0.7-1.8-2.3-2.1l-2.1-0.4c-2.2-0.4-3.4-1.5-3.4-3.2c0-2.1,1.7-3.5,4.3-3.5C88.6,108.5,90.6,109.7,90.9,112.1"/>
<path class="st0" d="M105.7,115.8c0,3.2-2.1,5.4-5.2,5.4c-3.1,0-5.2-2.2-5.2-5.4v-7h1.3v7c0,2.4,1.6,4.3,3.9,4.3
	c2.3,0,3.9-1.8,3.9-4.3v-7h1.3V115.8z"/>
<polygon class="st0" points="118.8,120.9 110.7,120.9 110.7,108.8 112,108.8 112,119.8 118.8,119.8 "/>
<polygon class="st0" points="124.8,109.9 124.8,120.9 123.6,120.9 123.6,109.9 119,109.9 119,108.8 129.3,108.8 129.3,109.9 "/>
<rect x="133.2" y="108.8" class="st0" width="1.3" height="12.2"/>
<polygon class="st0" points="150,120.9 148.9,120.9 140.9,111.1 140.9,120.9 139.7,120.9 139.7,108.8 140.7,108.8 148.7,118.8 
	148.7,108.8 150,108.8 "/>
<path class="st0" d="M166.8,114.9v6.1h-1l-0.1-2.6c-0.9,1.7-2.4,2.8-4.7,2.8c-3.6,0-6.3-2.8-6.3-6.3c0-3.6,2.8-6.4,6.4-6.4
	c2.7,0,5.1,1.6,5.8,4.3h-1.4c-0.6-2-2.5-3-4.4-3c-2.9,0-5.1,2.2-5.1,5.2c0,2.8,2.1,5,5,5c2.6,0,4.2-1.8,4.5-4.2h-4.6v-1.2h6
	L166.8,114.9L166.8,114.9z"/>
<path class="st0" d="M152.2,13.4c-8.2-8-19-12.4-30.7-12.4c-1.4-0.1-14.4,0.2-25.7,8.2c0,0-8.3,5.3-12.5,13.4c0,0-3.4,5.8-3.6,17.5
	l0,7l7.3,5.8L87,42.7c0-6.6,1.5-11.2,1.5-11.2c0.4-1.5,1.8-4.8,3.7-7.5c1.4-1.9,2.6-3.6,5.4-6.3c1.5-1.5,7-5.3,11.5-7.1
	c4-1.6,8.3-2.2,12.1-2.5l0.2,0c20.3,0,36.2,15.7,36.2,35.6c0,20.4-15.6,36.4-35.5,36.4c-0.1,0-13,1.1-25.4-8.4L70.6,51.2l-10.4-7.8
	c4.8-2.9,5.7-5.9,5.6-9.7C65.6,25.7,58.5,23,49.1,23l-16.5,0v30.1h8V30.9l9.7,0c8.2-0.1,7.7,4.5,7.7,4.5c0.2,5.1-7.5,4.6-7.5,4.6
	v4.2l8.4,6.8l33.5,26.5l0.2,0.1c13.4,10.8,28.7,9.9,29.7,9.9h0c24,0,42.8-19.2,42.8-43.7C165,32.3,160.4,21.4,152.2,13.4"/>
<path class="st0" d="M120.9,88.5c-4.9,0-17.6-1-29-10.1l-0.1-0.1L58.2,51.8L49.8,45c-0.2-0.2-0.3-0.4-0.3-0.7V40
	c0-0.3,0.1-0.5,0.3-0.7c0.2-0.2,0.4-0.3,0.7-0.2c0,0,0.2,0,0.5,0c0.9,0,3.9-0.1,5.4-1.6c0.5-0.5,0.8-1.2,0.8-2.1c0,0,0-0.1,0-0.1
	c0,0,0.1-1-0.8-1.9c-1-1.1-3-1.7-5.7-1.7l-0.3,0l-8.8,0v21.3c0,0.5-0.4,0.9-0.9,0.9h-8c-0.5,0-0.9-0.4-0.9-0.9V23
	c0-0.2,0.1-0.5,0.3-0.6c0.2-0.2,0.4-0.2,0.6-0.3l16.5,0c14.3,0,17.5,6.3,17.7,11.6c0.1,3.8-0.7,6.9-4.9,9.8l9.3,7l26.2,20.6
	c9.7,7.5,19.6,8.3,23.5,8.3c0.7,0,1.1,0,1.3,0c0,0,0.1,0,0.1,0c19.4,0,34.6-15.6,34.6-35.5c0-19.5-15.5-34.7-35.3-34.7l-0.2,0
	c-3.1,0.2-7.6,0.8-11.8,2.4c-4.5,1.8-9.8,5.5-11.2,6.9c-2.7,2.7-4,4.3-5.3,6.2c-1.9,2.7-3.3,5.9-3.6,7.2c0,0.1-1.4,4.6-1.4,10.9
	L88,52.8c0,0.3-0.2,0.7-0.5,0.8c-0.3,0.2-0.7,0.1-1-0.1l-7.3-5.8c-0.2-0.2-0.3-0.4-0.3-0.7l0-7C79,28.2,82.4,22.3,82.5,22
	C86.8,13.9,95,8.6,95.3,8.4C107.1,0.1,120.6,0,121.2,0c0.2,0,0.3,0,0.4,0c11.8,0,22.9,4.5,31.3,12.7c8.4,8.2,13,19.3,13,31.2
	c0,25-19.2,44.6-43.7,44.6l-0.2,0C121.8,88.5,121.4,88.5,120.9,88.5 M51.3,43.8l8.1,6.5L93.1,77c10.9,8.7,23.1,9.7,27.9,9.7
	c0.5,0,0.8,0,1,0l0.2,0c23.5,0,41.9-18.8,41.9-42.8c0-11.4-4.4-22-12.5-29.9c-8-7.8-18.7-12.1-30-12.2c-0.1,0-0.2,0-0.3,0
	c-0.5,0-13.5,0.1-24.9,8c-0.1,0.1-8.1,5.3-12.2,13c0,0.1-3.3,5.8-3.5,17.1l0,6.6l5.4,4.4l-0.1-8.2c0-6.6,1.4-11.2,1.5-11.4
	c0.4-1.4,1.8-4.8,3.9-7.7c1.4-1.9,2.6-3.6,5.5-6.4c1.7-1.7,7.2-5.4,11.8-7.3c4.4-1.8,9.2-2.3,12.4-2.6c0,0,0.1,0,0.1,0l0.2,0
	c20.8,0,37.1,16.1,37.1,36.5c0,20.9-16,37.3-36.4,37.3c-0.1,0-0.6,0-1.4,0c-4,0-14.5-0.8-24.6-8.7L70.1,51.9l-10.4-7.8
	c-0.2-0.2-0.4-0.5-0.4-0.8c0-0.3,0.2-0.6,0.4-0.7c4.4-2.6,5.2-5.3,5.1-8.9c-0.2-6.5-5.5-9.8-15.9-9.8l-15.6,0v28.3h6.1V30.9
	c0-0.5,0.4-0.9,0.9-0.9l10.1,0c3.3,0,5.7,0.8,7.1,2.3c1.2,1.3,1.2,2.8,1.2,3.2c0,1.3-0.4,2.5-1.3,3.4c-1.7,1.8-4.7,2.1-6.3,2.1V43.8
	z"/>
<path class="st0" d="M132.1,53.2L132,23h-7.5l-18.5,15.7L75.8,15.9c-16.2-14.9-31.2-15-33-14.9C18.6,1,0.9,19.5,0.9,43.2
	c0,24,19.5,43.5,43.5,43.6c0.1,0,0.4,0,0.8,0c3.7,0,19-1.1,30.4-12.2l-6.1-4.8C58.9,80,44.8,79.5,44.7,79.4l-0.2,0
	c-20,0-36.3-16.3-36.3-36.3c0-19.9,16.2-36.5,34.5-34.9c0.1,0,12.9-0.3,28.8,13.6l35.1,27.2l17.3-14v18.1H132.1z"/>
<path class="st0" d="M45.2,87.7c-0.4,0-0.7,0-0.8,0C19.9,87.6,0,67.7,0,43.2C0,18.6,18.4,0.1,42.7,0c0.1,0,0.3,0,0.6,0
	c2.8,0,17.3,0.7,33.1,15.2L106,37.5L124,22.3c0.2-0.1,0.4-0.2,0.6-0.2h7.5c0.5,0,0.9,0.4,0.9,0.9l0.1,30.2c0,0.2-0.1,0.5-0.3,0.6
	c-0.2,0.2-0.4,0.3-0.6,0.3H124c-0.5,0-0.9-0.4-0.9-0.9V37l-15.8,12.8c-0.3,0.3-0.8,0.3-1.1,0L71,22.6C55.8,9.3,43.4,9.2,42.8,9.2
	c-0.1,0-0.1,0-0.2,0c-0.8-0.1-1.6-0.1-2.3-0.1C23.4,9.1,9.1,24.7,9.1,43.2c0,19.5,15.9,35.4,35.4,35.4l0.2,0c0.1,0,0.2,0,0.4,0
	c2.3,0,14.5-0.5,23.8-9.4c0.3-0.3,0.8-0.3,1.2-0.1l6.1,4.8c0.2,0.2,0.3,0.4,0.3,0.7c0,0.3-0.1,0.5-0.3,0.7
	C63.8,87.3,47,87.7,45.2,87.7 M43.3,1.8c-0.2,0-0.4,0-0.5,0C19.4,1.9,1.8,19.7,1.8,43.2c0,23.5,19.1,42.6,42.6,42.7
	c0.2,0,0.4,0,0.8,0c1.8,0,17.2-0.3,29-11.2L69.6,71c-9.8,8.9-22.1,9.4-24.5,9.4c-0.3,0-0.5,0-0.5,0l-0.1,0
	C24,80.4,7.3,63.7,7.3,43.2c0-19.5,15.1-35.9,33-35.9c0.8,0,1.6,0,2.4,0.1c0,0,0.1,0,0.1,0c1.4,0,13.9,0.4,29.3,13.9L106.7,48
	l16.7-13.5c0.3-0.2,0.6-0.3,1-0.1c0.3,0.2,0.5,0.5,0.5,0.8v17.1h6.3l-0.1-28.4h-6.2l-18.2,15.5c-0.3,0.3-0.8,0.3-1.1,0L75.2,16.6
	C59.9,2.5,46,1.8,43.3,1.8"/>
</svg>
